<svg xmlns="http://www.w3.org/2000/svg" viewBox="0 0 796 714" width="796" height="714" preserveAspectRatio="xMidYMid slice" style="width: 100%; height: 100%; transform: translate3d(0px, 0px, 0px);"><defs><clipPath id="__lottie_element_2"><rect width="796" height="714" x="0" y="0"></rect></clipPath><clipPath id="__lottie_element_13"><path d="M0,0 L3459,0 L3459,3837 L0,3837z"></path></clipPath></defs><g clip-path="url(#__lottie_element_2)"><g clip-path="url(#__lottie_element_13)" transform="matrix(1,0,0,1,-216,-106)" opacity="1" style="display: block;"><g transform="matrix(1,0,0,1,1729.5,1918.5)" opacity="0.5" style="display: block;"><g opacity="1" transform="matrix(1.0003999471664429,0,0,0.9998999834060669,0,0)"><path fill="rgb(255,255,255)" fill-opacity="1" d=" M-1401.5,-1457.5 C-1401.5,-1457.5 -1027.489990234375,-1672.4990234375 -1027.489990234375,-1672.4990234375"></path><path stroke-linecap="round" stroke-linejoin="miter" fill-opacity="0" stroke-miterlimit="4" stroke="rgb(139,255,172)" stroke-opacity="1" stroke-width="92" d=" M-1401.5,-1457.5 C-1401.5,-1457.5 -1027.489990234375,-1672.4990234375 -1027.489990234375,-1672.4990234375"></path></g></g><g transform="matrix(1,0,0,1,1818.5,2059.5)" opacity="0.5" style="display: block;"><g opacity="1" transform="matrix(1.0003999471664429,0,0,0.9998999834060669,0,0)"><path fill="rgb(255,255,255)" fill-opacity="1" d=" M-1401.5,-1457.5 C-1401.5,-1457.5 -1027.489990234375,-1672.4990234375 -1027.489990234375,-1672.4990234375"></path><path stroke-linecap="round" stroke-linejoin="miter" fill-opacity="0" stroke-miterlimit="4" stroke="rgb(139,255,172)" stroke-opacity="1" stroke-width="92" d=" M-1401.5,-1457.5 C-1401.5,-1457.5 -1027.489990234375,-1672.4990234375 -1027.489990234375,-1672.4990234375"></path></g></g><g transform="matrix(1,0,0,1,2288.5,1790.5)" opacity="0.5" style="display: block;"><g opacity="1" transform="matrix(1.0003999471664429,0,0,0.9998999834060669,0,0)"><path fill="rgb(255,255,255)" fill-opacity="1" d=" M-1401.5,-1457.5 C-1401.5,-1457.5 -1372.3509521484375,-1474.47705078125 -1372.3509521484375,-1474.47705078125"></path><path stroke-linecap="round" stroke-linejoin="miter" fill-opacity="0" stroke-miterlimit="4" stroke="rgb(139,255,172)" stroke-opacity="1" stroke-width="92" d=" M-1401.5,-1457.5 C-1401.5,-1457.5 -1372.3509521484375,-1474.47705078125 -1372.3509521484375,-1474.47705078125"></path></g></g><g transform="matrix(1,0,0,1,1950.5,2175.5)" opacity="0.5" style="display: block;"><g opacity="1" transform="matrix(1.0003999471664429,0,0,0.9998999834060669,0,0)"><path fill="rgb(255,255,255)" fill-opacity="1" d=" M-1401.5,-1457.5 C-1401.5,-1457.5 -1117.4539794921875,-1623.4930419921875 -1117.4539794921875,-1623.4930419921875"></path><path stroke-linecap="round" stroke-linejoin="miter" fill-opacity="0" stroke-miterlimit="4" stroke="rgb(139,255,172)" stroke-opacity="1" stroke-width="92" d=" M-1401.5,-1457.5 C-1401.5,-1457.5 -1117.4539794921875,-1623.4930419921875 -1117.4539794921875,-1623.4930419921875"></path></g></g><g transform="matrix(0.9945223927497864,0.10452365130186081,-0.10452365130186081,0.9945223927497864,1572.916748046875,2026.4244384765625)" opacity="1" style="display: block;"><g opacity="1" transform="matrix(0.8567100167274475,0,0,0.8567100167274475,-819.5349731445312,-1371.64501953125)"><path stroke-linecap="butt" stroke-linejoin="miter" fill-opacity="0" stroke-miterlimit="4" stroke="rgb(139,255,172)" stroke-opacity="1" stroke-width="5" d=" M0,-9.677499771118164 C5.341012001037598,-9.677499771118164 9.677499771118164,-5.341012001037598 9.677499771118164,0 C9.677499771118164,5.341012001037598 5.341012001037598,9.677499771118164 0,9.677499771118164 C-5.341012001037598,9.677499771118164 -9.677499771118164,5.341012001037598 -9.677499771118164,0 C-9.677499771118164,-5.341012001037598 -5.341012001037598,-9.677499771118164 0,-9.677499771118164z"></path></g><g opacity="1" transform="matrix(1.4088000059127808,0,0,1.4088000059127808,-1282.948974609375,-1147.8809814453125)"><path stroke-linecap="butt" stroke-linejoin="miter" fill-opacity="0" stroke-miterlimit="4" stroke="rgb(139,255,172)" stroke-opacity="1" stroke-width="5" d=" M0,-9.677499771118164 C5.341012001037598,-9.677499771118164 9.677499771118164,-5.341012001037598 9.677499771118164,0 C9.677499771118164,5.341012001037598 5.341012001037598,9.677499771118164 0,9.677499771118164 C-5.341012001037598,9.677499771118164 -9.677499771118164,5.341012001037598 -9.677499771118164,0 C-9.677499771118164,-5.341012001037598 -5.341012001037598,-9.677499771118164 0,-9.677499771118164z"></path></g><g opacity="1" transform="matrix(1.4088000059127808,0,0,1.4088000059127808,-1151.238037109375,-1723.625)"><path stroke-linecap="butt" stroke-linejoin="miter" fill-opacity="0" stroke-miterlimit="4" stroke="rgb(139,255,172)" stroke-opacity="1" stroke-width="5" d=" M0,-9.677499771118164 C5.341012001037598,-9.677499771118164 9.677499771118164,-5.341012001037598 9.677499771118164,0 C9.677499771118164,5.341012001037598 5.341012001037598,9.677499771118164 0,9.677499771118164 C-5.341012001037598,9.677499771118164 -9.677499771118164,5.341012001037598 -9.677499771118164,0 C-9.677499771118164,-5.341012001037598 -5.341012001037598,-9.677499771118164 0,-9.677499771118164z"></path></g></g><g transform="matrix(1,0,0,1,1729.5,1918.5)" opacity="1" style="display: block;"><g opacity="1" transform="matrix(0.6436100006103516,0,0,0.6436100006103516,-1435.79296875,-1556.3709716796875)"><path stroke-linecap="butt" stroke-linejoin="miter" fill-opacity="0" stroke-miterlimit="4" stroke="rgb(139,255,172)" stroke-opacity="1" stroke-width="8" d=" M0,-9.677499771118164 C5.341012001037598,-9.677499771118164 9.677499771118164,-5.341012001037598 9.677499771118164,0 C9.677499771118164,5.341012001037598 5.341012001037598,9.677499771118164 0,9.677499771118164 C-5.341012001037598,9.677499771118164 -9.677499771118164,5.341012001037598 -9.677499771118164,0 C-9.677499771118164,-5.341012001037598 -5.341012001037598,-9.677499771118164 0,-9.677499771118164z"></path></g><g opacity="1" transform="matrix(0.6436100006103516,0,0,0.6436100006103516,-952.0289916992188,-1150.197021484375)"><path stroke-linecap="butt" stroke-linejoin="miter" fill-opacity="0" stroke-miterlimit="4" stroke="rgb(139,255,172)" stroke-opacity="1" stroke-width="8" d=" M0,-9.677499771118164 C5.341012001037598,-9.677499771118164 9.677499771118164,-5.341012001037598 9.677499771118164,0 C9.677499771118164,5.341012001037598 5.341012001037598,9.677499771118164 0,9.677499771118164 C-5.341012001037598,9.677499771118164 -9.677499771118164,5.341012001037598 -9.677499771118164,0 C-9.677499771118164,-5.341012001037598 -5.341012001037598,-9.677499771118164 0,-9.677499771118164z"></path></g></g><g transform="matrix(0.9510565400123596,0.30901700258255005,-0.30901700258255005,0.9510565400123596,1157.9501953125,2078.6923828125)" opacity="1" style="display: block;"><g opacity="1" transform="matrix(0,-1,1,0,843.572021484375,-2608.050048828125)"><path stroke-linecap="butt" stroke-linejoin="miter" fill-opacity="0" stroke-miterlimit="4" stroke="rgb(139,255,172)" stroke-opacity="1" stroke-width="3" d=" M-894.5,-1726 C-894.5,-1726 -869.5,-1726 -869.5,-1726"></path></g><g opacity="1" transform="matrix(1,0,0,1,0,0)"><path stroke-linecap="butt" stroke-linejoin="miter" fill-opacity="0" stroke-miterlimit="4" stroke="rgb(139,255,172)" stroke-opacity="1" stroke-width="3" d=" M-894.5,-1726 C-894.5,-1726 -869.5,-1726 -869.5,-1726"></path></g></g><g transform="matrix(0.9612616896629333,0.27563735842704773,-0.27563735842704773,0.9612616896629333,694.5682373046875,2474.85302734375)" opacity="1" style="display: block;"><g opacity="1" transform="matrix(0,-1,1,0,843.572021484375,-2608.050048828125)"><path stroke-linecap="butt" stroke-linejoin="miter" fill-opacity="0" stroke-miterlimit="4" stroke="rgb(139,255,172)" stroke-opacity="1" stroke-width="3" d=" M-894.5,-1726 C-894.5,-1726 -869.5,-1726 -869.5,-1726"></path></g><g opacity="1" transform="matrix(1,0,0,1,0,0)"><path stroke-linecap="butt" stroke-linejoin="miter" fill-opacity="0" stroke-miterlimit="4" stroke="rgb(139,255,172)" stroke-opacity="1" stroke-width="3" d=" M-894.5,-1726 C-894.5,-1726 -869.5,-1726 -869.5,-1726"></path></g></g><g transform="matrix(0.9743700623512268,0.22495105862617493,-0.22495105862617493,0.9743700623512268,1312.6192626953125,2560.75390625)" opacity="1" style="display: block;"><g opacity="1" transform="matrix(0,-1,1,0,843.572021484375,-2608.050048828125)"><path stroke-linecap="butt" stroke-linejoin="miter" fill-opacity="0" stroke-miterlimit="4" stroke="rgb(139,255,172)" stroke-opacity="1" stroke-width="3" d=" M-894.5,-1726 C-894.5,-1726 -869.5,-1726 -869.5,-1726"></path></g><g opacity="1" transform="matrix(1,0,0,1,0,0)"><path stroke-linecap="butt" stroke-linejoin="miter" fill-opacity="0" stroke-miterlimit="4" stroke="rgb(139,255,172)" stroke-opacity="1" stroke-width="3" d=" M-894.5,-1726 C-894.5,-1726 -869.5,-1726 -869.5,-1726"></path></g></g></g><g transform="matrix(1.0114229917526245,0,0,1.0114229917526245,388.2809753417969,354.28094482421875)" opacity="1" style="display: block;"><g opacity="1" transform="matrix(1,0,0,1,9.718999862670898,2.7190001010894775)"><path fill="rgb(139,255,172)" fill-opacity="1" d=" M0,-177.718994140625 C98.08311462402344,-177.718994140625 177.718994140625,-98.08311462402344 177.718994140625,0 C177.718994140625,98.08311462402344 98.08311462402344,177.718994140625 0,177.718994140625 C-98.08311462402344,177.718994140625 -177.718994140625,98.08311462402344 -177.718994140625,0 C-177.718994140625,-98.08311462402344 -98.08311462402344,-177.718994140625 0,-177.718994140625z"></path><path stroke-linecap="butt" stroke-linejoin="miter" fill-opacity="0" stroke-miterlimit="4" stroke="rgb(255,255,255)" stroke-opacity="1" stroke-width="0" d=" M0,-177.718994140625 C98.08311462402344,-177.718994140625 177.718994140625,-98.08311462402344 177.718994140625,0 C177.718994140625,98.08311462402344 98.08311462402344,177.718994140625 0,177.718994140625 C-98.08311462402344,177.718994140625 -177.718994140625,98.08311462402344 -177.718994140625,0 C-177.718994140625,-98.08311462402344 -98.08311462402344,-177.718994140625 0,-177.718994140625z"></path></g></g><g transform="matrix(0.9157625436782837,0,0,0.9157625436782837,389.0997009277344,354.5410461425781)" opacity="1" style="display: block;"><g opacity="1" transform="matrix(1,0,0,1,9.718999862670898,2.7190001010894775)"><path fill="rgb(21,210,74)" fill-opacity="1" d=" M0,-177.718994140625 C98.08311462402344,-177.718994140625 177.718994140625,-98.08311462402344 177.718994140625,0 C177.718994140625,98.08311462402344 98.08311462402344,177.718994140625 0,177.718994140625 C-98.08311462402344,177.718994140625 -177.718994140625,98.08311462402344 -177.718994140625,0 C-177.718994140625,-98.08311462402344 -98.08311462402344,-177.718994140625 0,-177.718994140625z"></path><path stroke-linecap="butt" stroke-linejoin="miter" fill-opacity="0" stroke-miterlimit="4" stroke="rgb(255,255,255)" stroke-opacity="1" stroke-width="0" d=" M0,-177.718994140625 C98.08311462402344,-177.718994140625 177.718994140625,-98.08311462402344 177.718994140625,0 C177.718994140625,98.08311462402344 98.08311462402344,177.718994140625 0,177.718994140625 C-98.08311462402344,177.718994140625 -177.718994140625,98.08311462402344 -177.718994140625,0 C-177.718994140625,-98.08311462402344 -98.08311462402344,-177.718994140625 0,-177.718994140625z"></path></g></g><g transform="matrix(1,0,0,1,396.5,357)" opacity="1" style="display: block;"><g opacity="1" transform="matrix(1,0,0,1,0,0)"><path stroke-linecap="butt" stroke-linejoin="miter" fill-opacity="0" stroke-miterlimit="4" stroke="rgb(255,255,255)" stroke-opacity="1" stroke-width="18" d=" M-72,6 C-72,6 -28,49 -28,49 C-28,49 75,-54 75,-54"></path></g></g></g></svg>