<svg width="60" height="60" viewBox="0 0 60 60" fill="none" xmlns="http://www.w3.org/2000/svg">
<path d="M55 37.5C55 47.175 47.175 55 37.5 55L40.125 50.625" stroke="#EF9837" stroke-width="1.5" stroke-linecap="round" stroke-linejoin="round"/>
<path d="M5 22.5C5 12.825 12.825 5 22.5 5L19.875 9.375" stroke="#EF9837" stroke-width="1.5" stroke-linecap="round" stroke-linejoin="round"/>
<path d="M55 10.5V10.775C55 11.475 54.45 12.025 53.75 12.025H31.25C30.55 12.025 30 11.475 30 10.775V10.5C30 6.1 31.1 5 35.55 5H49.45C53.9 5 55 6.1 55 10.5Z" fill="#EF9837"/>
<path d="M31.25 14.5251C30.55 14.5251 30 15.0751 30 15.7751V18.2751V20.7501C30 25.1501 31.1 26.2501 35.55 26.2501H49.45C53.9 26.2501 55 25.1501 55 20.7501V18.2751V15.7751C55 15.0751 54.45 14.5251 53.75 14.5251H31.25Z" fill="#EF9837"/>
<path d="M30 39.25V39.525C30 40.225 29.45 40.775 28.75 40.775H6.25C5.55 40.775 5 40.225 5 39.525V39.25C5 34.85 6.1 33.75 10.55 33.75H24.45C28.9 33.75 30 34.85 30 39.25Z" fill="#EF9837"/>
<path d="M6.25 43.2751C5.55 43.2751 5 43.8251 5 44.5251V47.0251V49.5001C5 53.9001 6.1 55.0002 10.55 55.0002H24.45C28.9 55.0002 30 53.9001 30 49.5001V47.0251V44.5251C30 43.8251 29.45 43.2751 28.75 43.2751H6.25V43.2751Z" fill="#EF9837"/>
</svg>
