<svg width="49" height="51" viewBox="0 0 49 51" fill="none" xmlns="http://www.w3.org/2000/svg">
<path d="M42.6249 7.2375L27.9749 0.7125C25.8249 -0.2375 22.5749 -0.2375 20.4249 0.7125L5.7749 7.2375C2.0749 8.8875 1.5249 11.1375 1.5249 12.3375C1.5249 13.5375 2.0749 15.7875 5.7749 17.4375L20.4249 23.9625C21.4999 24.4375 22.8499 24.6875 24.1999 24.6875C25.5499 24.6875 26.8999 24.4375 27.9749 23.9625L42.6249 17.4375C46.3249 15.7875 46.8749 13.5375 46.8749 12.3375C46.8749 11.1375 46.3499 8.8875 42.6249 7.2375Z" fill="#EF9837"/>
<path d="M24.2 37.6125C23.25 37.6125 22.3 37.4124 21.425 37.0374L4.575 29.5375C2 28.3875 0 25.3125 0 22.4875C0 21.4625 0.825 20.6375 1.85 20.6375C2.875 20.6375 3.7 21.4625 3.7 22.4875C3.7 23.8375 4.825 25.5875 6.075 26.1375L22.925 33.6375C23.725 33.9875 24.65 33.9875 25.45 33.6375L42.3 26.1375C43.55 25.5875 44.675 23.8625 44.675 22.4875C44.675 21.4625 45.5 20.6375 46.525 20.6375C47.55 20.6375 48.375 21.4625 48.375 22.4875C48.375 25.2875 46.375 28.3875 43.8 29.5375L26.95 37.0374C26.1 37.4124 25.15 37.6125 24.2 37.6125Z" fill="#EF9837"/>
<path d="M24.2 50.0124C23.25 50.0124 22.3 49.8124 21.425 49.4374L4.575 41.9374C1.8 40.7124 0 37.9374 0 34.8874C0 33.8624 0.825 33.0374 1.85 33.0374C2.875 33.0374 3.7 33.8624 3.7 34.8874C3.7 36.4624 4.625 37.8874 6.075 38.5374L22.925 46.0374C23.725 46.3874 24.65 46.3874 25.45 46.0374L42.3 38.5374C43.725 37.9124 44.675 36.4624 44.675 34.8874C44.675 33.8624 45.5 33.0374 46.525 33.0374C47.55 33.0374 48.375 33.8624 48.375 34.8874C48.375 37.9374 46.575 40.6874 43.8 41.9374L26.95 49.4374C26.1 49.8124 25.15 50.0124 24.2 50.0124Z" fill="#EF9837"/>
</svg>
