<svg width="77" height="494" viewBox="0 0 77 494" fill="none" xmlns="http://www.w3.org/2000/svg">
<path d="M3.66048 473.66C4.33436 472.987 4.33436 471.894 3.66049 471.22C2.98661 470.546 1.89404 470.546 1.22016 471.22C0.546284 471.894 0.546286 472.987 1.22016 473.66C1.89404 474.334 2.98661 474.334 3.66048 473.66Z" fill="#EF9837"/>
<path d="M41.8569 0.418982L43.2418 4.37307C43.3011 4.5423 43.4185 4.67641 43.5666 4.74423L47.0263 6.32698C47.5152 6.5507 47.5152 7.3413 47.0263 7.56502L43.5666 9.14777C43.4185 9.2156 43.3011 9.3497 43.2418 9.51894L41.8569 13.473C41.6613 14.0317 40.9692 14.0317 40.7736 13.473L39.3887 9.51894C39.3293 9.3497 39.2119 9.2156 39.0639 9.14777L35.6041 7.56502C35.1153 7.3413 35.1153 6.5507 35.6041 6.32698L39.0639 4.74423C39.2119 4.67641 39.3293 4.5423 39.3887 4.37307L40.7736 0.418982C40.9692 -0.139661 41.6611 -0.139661 41.8569 0.418982Z" fill="#EF9837"/>
<path d="M52.9604 479.813L54.3453 483.767C54.4046 483.937 54.522 484.071 54.6701 484.139L58.13 485.721C58.6187 485.945 58.6187 486.736 58.13 486.959L54.6701 488.542C54.522 488.61 54.4046 488.744 54.3453 488.913L52.9604 492.867C52.7648 493.426 52.0729 493.426 51.8771 492.867L50.4922 488.913C50.4328 488.744 50.3154 488.61 50.1674 488.542L46.7077 486.959C46.2188 486.736 46.2188 485.945 46.7077 485.721L50.1674 484.139C50.3154 484.071 50.4328 483.937 50.4922 483.767L51.8771 479.813C52.0729 479.255 52.7648 479.255 52.9604 479.813Z" fill="#EF9837"/>
<path d="M68.7114 202.235L70.5908 207.425C70.6713 207.647 70.8305 207.824 71.0317 207.913L75.7272 209.99C76.3905 210.283 76.3905 211.321 75.7272 211.615L71.0317 213.692C70.8307 213.781 70.6713 213.957 70.5908 214.179L68.7114 219.369C68.4459 220.102 67.5069 220.102 67.2412 219.369L65.3618 214.179C65.2813 213.957 65.1221 213.781 64.9209 213.692L60.2253 211.615C59.5621 211.321 59.5621 210.283 60.2253 209.99L64.9209 207.913C65.1219 207.824 65.2813 207.647 65.3618 207.425L67.2412 202.235C67.5066 201.502 68.4457 201.502 68.7114 202.235Z" fill="#EF9837"/>
</svg>
