<svg width="208" height="196" viewBox="0 0 208 196" fill="none" xmlns="http://www.w3.org/2000/svg">
<circle cx="121.113" cy="86.8991" r="86" fill="#F9F4FF"/>
<path d="M106.817 54.1696L107.25 54.4196L107.5 53.9866L109.875 49.873C112.982 44.4922 119.862 42.6486 125.243 45.7552C130.624 48.8618 132.467 55.7422 129.361 61.123L126.986 65.2366L126.736 65.6696L127.169 65.9196C145.583 76.5511 151.892 100.097 141.261 118.512L117.761 159.215C114.861 164.237 116.582 170.659 121.604 173.558C122.321 173.972 122.567 174.89 122.153 175.607L114.903 188.164C114.489 188.882 113.571 189.128 112.854 188.713L2.86877 125.213C2.15133 124.799 1.90552 123.882 2.31973 123.164L9.56973 110.607C9.98394 109.89 10.9013 109.644 11.6188 110.058L12.9178 110.808C17.9399 113.708 24.3616 111.987 27.2611 106.965L48.7611 69.7257C60.4971 49.3982 86.4897 42.4335 106.817 54.1696Z" fill="#F9F4FF" stroke="#5352EC"/>
<mask id="path-3-inside-1" fill="white">
<path d="M65.2031 165.245C63.0814 168.919 62.5064 173.287 63.6047 177.386C64.703 181.485 67.3846 184.979 71.0595 187.101C74.7345 189.223 79.1018 189.798 83.2006 188.699C87.2995 187.601 90.7942 184.92 92.9159 181.245L79.0595 173.245L65.2031 165.245Z"/>
</mask>
<path d="M65.2031 165.245C63.0814 168.919 62.5064 173.287 63.6047 177.386C64.703 181.485 67.3846 184.979 71.0595 187.101C74.7345 189.223 79.1018 189.798 83.2006 188.699C87.2995 187.601 90.7942 184.92 92.9159 181.245L79.0595 173.245L65.2031 165.245Z" fill="#5352EC" stroke="#5352EC" stroke-width="2" mask="url(#path-3-inside-1)"/>
<circle cx="61.6133" cy="24.3991" r="6.5" fill="#5352EC"/>
<circle cx="166.613" cy="105.399" r="6" fill="#5352EC" stroke="#5352EC"/>
<circle cx="18.6133" cy="89.3991" r="6" stroke="#5352EC"/>
</svg>
