<svg width="70" height="381" viewBox="0 0 70 381" fill="none" xmlns="http://www.w3.org/2000/svg">
<path d="M68.3057 97.3657C69.2413 96.4302 69.2413 94.9134 68.3057 93.9778C67.3702 93.0423 65.8534 93.0423 64.9178 93.9778C63.9823 94.9134 63.9823 96.4302 64.9178 97.3657C65.8534 98.3013 67.3702 98.3013 68.3057 97.3657Z" fill="#EF9837"/>
<path d="M9.18972 0.581672L11.1124 6.07113C11.1948 6.30608 11.3578 6.49225 11.5633 6.58642L16.3665 8.78375C17.0452 9.09434 17.0452 10.1919 16.3665 10.5025L11.5633 12.6998C11.3578 12.794 11.1948 12.9802 11.1124 13.2151L9.18972 18.7046C8.91818 19.4802 7.9573 19.4802 7.68577 18.7046L5.76311 13.2151C5.6807 12.9802 5.51772 12.794 5.31216 12.6998L0.509019 10.5025C-0.169673 10.1919 -0.169673 9.09434 0.509019 8.78375L5.31216 6.58642C5.51772 6.49225 5.6807 6.30608 5.76311 6.07113L7.68577 0.581672C7.9573 -0.193891 8.91787 -0.193891 9.18972 0.581672Z" fill="#EF9837"/>
<path d="M32.523 362.248L34.4457 367.738C34.5281 367.973 34.6911 368.159 34.8966 368.253L39.7 370.451C40.3784 370.761 40.3784 371.859 39.7 372.169L34.8966 374.367C34.6911 374.461 34.5281 374.647 34.4457 374.882L32.523 380.371C32.2515 381.147 31.2909 381.147 31.0191 380.371L29.0964 374.882C29.014 374.647 28.851 374.461 28.6455 374.367L23.8424 372.169C23.1637 371.859 23.1637 370.761 23.8424 370.451L28.6455 368.253C28.851 368.159 29.014 367.973 29.0964 367.738L31.0191 362.248C31.2909 361.473 32.2515 361.473 32.523 362.248Z" fill="#EF9837"/>
<path d="M46.2223 100.811L48.8315 108.016C48.9432 108.325 49.1642 108.569 49.4436 108.693L55.9624 111.577C56.8832 111.984 56.8832 113.425 55.9624 113.832L49.4436 116.716C49.1645 116.84 48.9432 117.084 48.8315 117.393L46.2223 124.598C45.8538 125.615 44.5501 125.615 44.1813 124.598L41.572 117.393C41.4603 117.084 41.2393 116.84 40.96 116.716L34.4411 113.832C33.5204 113.425 33.5204 111.984 34.4411 111.577L40.96 108.693C41.239 108.569 41.4603 108.325 41.572 108.016L44.1813 100.811C44.5498 99.7933 45.8535 99.7933 46.2223 100.811Z" fill="#EF9837"/>
</svg>
