<svg width="144" height="186" viewBox="0 0 144 186" fill="none" xmlns="http://www.w3.org/2000/svg">
<circle opacity="0.2" cx="72" cy="72.4585" r="71.5" fill="#5352EC"/>
<rect x="43.9505" y="71.0012" width="70" height="98" rx="7" transform="rotate(2.5 43.9505 71.0012)" fill="#F2F2F2" stroke="#5352EC" stroke-width="2"/>
<rect x="2.33604" y="65.1392" width="74" height="102" rx="9" transform="rotate(-7.5 2.33604 65.1392)" fill="#F2F2F2" stroke="#5352EC" stroke-width="2"/>
<path d="M4.50222 73.9316C3.92552 69.5512 7.00909 65.5326 11.3896 64.9559L66.9105 57.6464C71.291 57.0697 75.3095 60.1533 75.8862 64.5338L77.8441 79.4054L6.46011 88.8033L4.50222 73.9316Z" fill="#F2F2F2"/>
<rect x="90.3662" y="59.6015" width="3" height="10" rx="1.5" transform="rotate(82.5 90.3662 59.6015)" fill="#5352EC"/>
<rect x="62.9697" y="43.0358" width="3" height="10" rx="1.5" transform="rotate(-7.5 62.9697 43.0358)" fill="#5352EC"/>
<rect x="80.5469" y="45.7648" width="3" height="10" rx="1.5" transform="rotate(37.5 80.5469 45.7648)" fill="#5352EC"/>
<rect x="13.9219" y="91.8554" width="58" height="4" rx="2" transform="rotate(-7.5 13.9219 91.8554)" fill="#5352EC"/>
<rect x="16.5332" y="111.684" width="58" height="4" rx="2" transform="rotate(-7.5 16.5332 111.684)" fill="#5352EC"/>
<rect x="19.1436" y="131.513" width="58" height="4" rx="2" transform="rotate(-7.5 19.1436 131.513)" fill="#5352EC"/>
<rect opacity="0.4" x="14.9668" y="99.787" width="21" height="4" rx="2" transform="rotate(-7.5 14.9668 99.787)" fill="#5352EC"/>
<rect opacity="0.4" x="17.5771" y="119.616" width="21" height="4" rx="2" transform="rotate(-7.5 17.5771 119.616)" fill="#5352EC"/>
<rect opacity="0.4" x="20.1875" y="139.445" width="21" height="4" rx="2" transform="rotate(-7.5 20.1875 139.445)" fill="#5352EC"/>
</svg>
