<svg width="60" height="60" viewBox="0 0 60 60" fill="none" xmlns="http://www.w3.org/2000/svg">
<path d="M12.5 35C6.975 35 2.5 39.475 2.5 45C2.5 50.525 6.975 55 12.5 55C18.025 55 22.5 50.525 22.5 45C22.5 39.475 18.025 35 12.5 35ZM15 44.2C15 45.725 14.175 47.175 12.875 47.95L10.975 49.1C10.675 49.3 10.325 49.375 10 49.375C9.375 49.375 8.75 49.05 8.4 48.475C7.875 47.6 8.15 46.425 9.05 45.9L10.95 44.75C11.125 44.65 11.25 44.425 11.25 44.225V41.9C11.25 40.85 12.1 40 13.125 40C14.15 40 15 40.85 15 41.875V44.2Z" fill="#EF9837"/>
<path d="M42.5 10H17.5C10 10 5 13.75 5 22.5V31.4C5 32.325 5.95 32.9 6.775 32.525C9.225 31.4 12.05 30.975 15.025 31.5C21.6 32.675 26.425 38.775 26.25 45.45C26.225 46.5 26.075 47.525 25.8 48.525C25.6 49.3 26.225 50.025 27.025 50.025H42.5C50 50.025 55 46.275 55 37.525V22.5C55 13.75 50 10 42.5 10ZM30 36.25C26.55 36.25 23.75 33.45 23.75 30C23.75 26.55 26.55 23.75 30 23.75C33.45 23.75 36.25 26.55 36.25 30C36.25 33.45 33.45 36.25 30 36.25ZM48.125 35C48.125 36.025 47.275 36.875 46.25 36.875C45.225 36.875 44.375 36.025 44.375 35V25C44.375 23.975 45.225 23.125 46.25 23.125C47.275 23.125 48.125 23.975 48.125 25V35Z" fill="#EF9837"/>
</svg>
