<svg width="60" height="60" viewBox="0 0 60 60" fill="none" xmlns="http://www.w3.org/2000/svg">
<path d="M25.625 25.075C25.625 26.425 26 26.625 26.85 26.925L28.125 27.375V23.125H27.375C26.425 23.125 25.625 24 25.625 25.075Z" fill="#EF9837"/>
<path d="M31.875 36.875H32.625C33.6 36.875 34.375 36 34.375 34.925C34.375 33.575 34 33.375 33.15 33.075L31.875 32.625V36.875Z" fill="#EF9837"/>
<path d="M48.95 13.7L43.825 18.825C43.45 19.2 42.975 19.375 42.5 19.375C42.025 19.375 41.55 19.2 41.175 18.825C40.45 18.1 40.45 16.9 41.175 16.175L46.3 11.05C41.9 7.3 36.225 5 30 5C16.2 5 5 16.2 5 30C5 43.8 16.2 55 30 55C43.8 55 55 43.8 55 30C55 23.775 52.7 18.1 48.95 13.7ZM34.375 29.55C35.975 30.125 38.125 31.275 38.125 34.95C38.125 38.075 35.65 40.65 32.625 40.65H31.875V41.275C31.875 42.3 31.025 43.15 30 43.15C28.975 43.15 28.125 42.3 28.125 41.275V40.65H27.925C24.6 40.65 21.875 37.85 21.875 34.4C21.875 33.35 22.725 32.5 23.75 32.5C24.775 32.5 25.625 33.35 25.625 34.375C25.625 35.75 26.65 36.875 27.925 36.875H28.125V31.325L25.625 30.45C24.025 29.875 21.875 28.725 21.875 25.05C21.875 21.925 24.35 19.35 27.375 19.35H28.125V18.75C28.125 17.725 28.975 16.875 30 16.875C31.025 16.875 31.875 17.725 31.875 18.75V19.375H32.075C35.4 19.375 38.125 22.175 38.125 25.625C38.125 26.65 37.275 27.5 36.25 27.5C35.225 27.5 34.375 26.65 34.375 25.625C34.375 24.25 33.35 23.125 32.075 23.125H31.875V28.675L34.375 29.55Z" fill="#EF9837"/>
<path d="M56.725 4.275C56.525 3.825 56.175 3.45 55.7 3.25C55.475 3.175 55.25 3.125 55 3.125H45C43.975 3.125 43.125 3.975 43.125 5C43.125 6.025 43.975 6.875 45 6.875H50.475L46.3 11.05C47.25 11.875 48.125 12.75 48.95 13.7L53.125 9.525V15C53.125 16.025 53.975 16.875 55 16.875C56.025 16.875 56.875 16.025 56.875 15V5C56.875 4.75 56.825 4.525 56.725 4.275Z" fill="#EF9837"/>
</svg>
